<svg xmlns="http://www.w3.org/2000/svg" width="192" height="72" viewBox="0 0 192 72"><defs><style>.a{fill:#111;}</style></defs><path class="a" d="M71.39,59.085h-7.4L72.3,12h9.587L78.156,32.794a10.154,10.154,0,0,1,10.221-7.05c6.411,0,10.925,4.3,10.925,13.6,0,11.56-6.063,20.583-16.493,20.583a7.912,7.912,0,0,1-8.671-5.78ZM75.9,45.552c-.707,4.018.915,7.685,4.793,7.685,5.361,0,8.321-6.415,8.321-13.041,0-4.654-2.117-7.118-5.429-7.118-3.171,0-5.919,2.748-6.906,8.176Z"/><path class="a" d="M53.028,44.993a7.3,7.3,0,0,1,7.5,7.1v.4a7.19,7.19,0,0,1-7.19,7.19h-.287a7.089,7.089,0,0,1-7.177-7V52.63h0v-.136A7.225,7.225,0,0,1,52.818,45h0Z"/><path class="a" d="M111.848,48.867c-.28,1.55-.212,2.88,1.905,2.88a8.371,8.371,0,0,0,2.113-.283l-1.482,7.118a18.881,18.881,0,0,1-5.14.846c-6.06,0-8.316-3.171-7.33-9.019l4.226-23.886h9.586Z"/><path class="a" d="M134.943,46.683a35.48,35.48,0,0,1-4.43,5.144v.28a36.9,36.9,0,0,1,5.636-.352h9.986l-1.2,7.33H118.566l1.131-5.468L130,39.073a36.581,36.581,0,0,1,4.442-5.144v-.284a35.538,35.538,0,0,1-5.636.356h-8.3l1.258-7.47h23.706v5.92Z"/><path class="a" d="M111.988,12.9a5.332,5.332,0,0,1,5.887,4.693,5.607,5.607,0,0,1,.028.8,5.307,5.307,0,0,1-5.216,5.392,5.1,5.1,0,0,1-.7-.036A5.276,5.276,0,0,1,106.3,18.93a4.846,4.846,0,0,1,0-.539A5.3,5.3,0,0,1,112,12.9Z"/></svg>